<?xml version="1.0" encoding="utf-8"?>
<!-- Generator: Adobe Illustrator 16.0.0, SVG Export Plug-In . SVG Version: 6.00 Build 0)  -->
<!DOCTYPE svg PUBLIC "-//W3C//DTD SVG 1.1//EN" "http://www.w3.org/Graphics/SVG/1.1/DTD/svg11.dtd">
<svg version="1.1" id="Layer_1" xmlns="http://www.w3.org/2000/svg" xmlns:xlink="http://www.w3.org/1999/xlink" x="0px" y="0px"
	 width="88px" height="44px" viewBox="0 0 88 44" enable-background="new 0 0 88 44" xml:space="preserve">
<path opacity="0.01" fill="#DDDDDD" d="M42.192,8.445c-1.415,3.217-3.192,5.475-6.246,8.27c-5.566,4.918-4.522,15.094-1.53,21.139
	c-6.725-4.036-2.28-16.938-8.696-23.5C22.794,10.01,11.461,6.315,7.063,1.621c6.99,15.053-2.274,20.764,16.347,32.608
	C12.525,29.544,13.025,34.064,2,36.196c6.413,2.264,8.105,6.171,14.023,6.184c6.082,0.007,8.795-5.287,14.579-2.513
	c-1.122-1.739-3.785-3.501-4.374-4.046c2.729,1.354,5.279,2.309,8.456,2.672c0.177,0.398,0.349,0.635,0.601,0.869
	c-0.217-5.587,2.112-6.164,4.761-8.942c4.893-5.54,4.496-9.499,2.79-15.838C42.368,12.979,42.274,10.55,42.192,8.445z
	 M71.114,22.867c-0.45-0.304-1.041-0.525-1.767-0.66C68.62,22.07,67.622,22,66.36,22h-4.974v20H65.3v-7.679h1.458
	c2.142,0,3.844-0.573,5.11-1.717c1.261-1.144,1.894-2.677,1.894-4.589c0-1.041-0.234-2.021-0.708-2.94
	C72.587,24.161,71.935,23.425,71.114,22.867z M68.841,30.232c-0.582,0.473-1.421,0.708-2.508,0.708H65.3v-5.424h1.003
	c1.144,0,2.002,0.22,2.565,0.666c0.563,0.445,0.844,1.121,0.844,2.025C69.712,29.088,69.421,29.764,68.841,30.232z M79.722,22H75.85
	v20H86v-3.517h-6.278V22z M49.506,22l-7.764,20h4.056l1.552-4.191h7.417L56.342,42h4.191l-7.651-20H49.506z M48.695,34.101
	l2.415-6.442l2.362,6.442H48.695z M27.777,38.113c-9.554-3.846-11.636-1.088-21.875-1.664
	C16.669,36.031,17.696,33.234,27.777,38.113z M10.428,6.841c8.017,12.257,7.817,19.642,20.522,29.446
	C17.296,29.196,15.211,15.168,10.428,6.841z M34.512,36.148c-1.829-11.604,3.317-14.804,6.412-22.789
	C39.198,21.129,33.897,24.496,34.512,36.148z"/>
</svg>
