<?xml version="1.0" encoding="utf-8"?>
<!-- Generator: Adobe Illustrator 16.0.0, SVG Export Plug-In . SVG Version: 6.00 Build 0)  -->
<!DOCTYPE svg PUBLIC "-//W3C//DTD SVG 1.1//EN" "http://www.w3.org/Graphics/SVG/1.1/DTD/svg11.dtd">
<svg version="1.1" id="Layer_1" xmlns="http://www.w3.org/2000/svg" xmlns:xlink="http://www.w3.org/1999/xlink" x="0px" y="0px"
	 width="88px" height="44px" viewBox="0 0 88 44" enable-background="new 0 0 88 44" xml:space="preserve">
<path opacity="0.01" fill="#DDDDDD" enable-background="new    " d="M41.443,8.698c-1.389,3.157-3.133,5.373-6.129,8.116
	c-5.462,4.827-4.438,14.813-1.502,20.747c-6.599-3.961-2.237-16.623-8.534-23.063C22.407,10.233,11.285,6.607,6.969,2
	c6.86,14.772-2.232,20.377,16.042,32.001C12.33,29.402,12.82,33.84,2,35.932C8.293,38.152,9.954,41.986,15.763,42
	c5.968,0.008,8.631-5.188,14.307-2.466c-1.101-1.707-3.714-3.437-4.292-3.97c2.678,1.328,5.181,2.266,8.298,2.621
	c0.174,0.392,0.343,0.623,0.59,0.854c-0.213-5.482,2.073-6.049,4.672-8.775c4.802-5.438,4.412-9.322,2.738-15.542
	C41.617,13.147,41.524,10.764,41.443,8.698z M71.113,22.867c-0.449-0.305-1.041-0.525-1.768-0.661C68.619,22.07,67.622,22,66.359,22
	h-4.978v20H65.3v-7.68h1.458c2.143,0,3.846-0.572,5.11-1.717c1.262-1.146,1.896-2.68,1.896-4.59c0-1.041-0.234-2.021-0.709-2.938
	C72.587,24.161,71.936,23.425,71.113,22.867z M68.841,30.232c-0.582,0.473-1.421,0.707-2.508,0.707h-1.032v-5.424h1.004
	c1.143,0,2.002,0.221,2.563,0.666c0.563,0.441,0.845,1.117,0.845,2.021C69.713,29.088,69.422,29.764,68.841,30.232z M79.723,22
	H75.85v20H86v-3.518h-6.277V22z M49.506,22l-7.764,20h4.056l1.552-4.191h7.418L56.342,42h4.191l-7.651-20H49.506z M48.695,34.102
	l2.414-6.439l2.363,6.439H48.695z M27.297,37.813c-9.376-3.771-11.42-1.064-21.467-1.633C16.396,35.77,17.404,33.025,27.297,37.813z
	 M10.271,7.123c7.867,12.028,7.671,19.275,20.14,28.896C17.011,29.063,14.965,15.295,10.271,7.123z M33.906,35.886
	c-1.795-11.389,3.255-14.529,6.292-22.365C38.505,21.146,33.303,24.45,33.906,35.886z"/>
</svg>
