<svg width="165" height="58" viewBox="0 0 165 58" fill="none" xmlns="http://www.w3.org/2000/svg">
<path fill-rule="evenodd" clip-rule="evenodd" d="M56.6193 9.61414C54.6254 14.1464 52.1219 17.3268 47.8203 21.2646C39.9796 28.1927 41.45 42.5274 45.6641 51.0437C36.1907 45.3586 42.4533 27.1837 33.414 17.9397C29.293 11.8178 13.3282 6.61304 7.13221 0C16.9789 21.2051 3.92832 29.2505 30.1607 45.9353C14.8278 39.3356 15.5319 45.704 0 48.7064C9.03358 51.8962 11.4173 57.4002 19.7556 57.4185C28.3227 57.4287 32.1451 49.9707 40.292 53.8794C38.712 51.4285 34.9604 48.9472 34.1315 48.1797C37.9748 50.0867 41.5672 51.4317 46.0425 51.9432C46.2916 52.5047 46.5343 52.838 46.8893 53.167C46.5831 45.2978 49.8643 44.4846 53.5961 40.5702C60.4887 32.765 59.9291 27.1894 57.5263 18.2591C56.8678 16.0009 56.7353 12.5797 56.6193 9.61414ZM161.001 18.4087C161.167 18.308 161.309 18.1856 161.428 18.0418C161.548 17.8985 161.641 17.7318 161.71 17.5455C161.778 17.3585 161.811 17.1481 161.811 16.9142V16.8984C161.811 16.6493 161.77 16.4199 161.689 16.2139C161.608 16.0079 161.491 15.826 161.339 15.6682C161.154 15.4895 160.923 15.35 160.647 15.2492C160.369 15.1485 160.053 15.099 159.694 15.099H157.154V20.7988H158.147V18.8118H159.388H159.404L160.81 20.7988H161.991L160.451 18.64C160.652 18.5862 160.835 18.5089 161.001 18.4087ZM158.147 17.9245V16.0029H159.609C159.985 16.0029 160.276 16.0827 160.483 16.2437C160.69 16.4041 160.794 16.6404 160.794 16.9509V16.9669C160.794 17.2622 160.688 17.4948 160.475 17.6665C160.263 17.8383 159.976 17.9245 159.617 17.9245H158.147ZM159.38 12.3281C156.281 12.3281 153.761 14.8499 153.761 17.9486C153.761 21.0472 156.281 23.5679 159.38 23.5679C162.479 23.5679 165 21.0472 165 17.9486C165 14.8499 162.479 12.3281 159.38 12.3281ZM159.38 22.6749C156.775 22.6749 154.654 20.5541 154.654 17.9486C154.654 15.343 156.775 13.2229 159.38 13.2229C161.986 13.2229 164.106 15.343 164.106 17.9486C164.106 20.5541 161.986 22.6749 159.38 22.6749ZM121.61 14.1172C120.677 13.4866 119.454 13.0296 117.949 12.7495C116.444 12.4668 114.376 12.3217 111.763 12.3217H101.461V53.7438H109.569V37.8392H112.589C117.026 37.8392 120.551 36.6546 123.173 34.2848C125.785 31.9163 127.096 28.7409 127.096 24.7797C127.096 22.6235 126.611 20.5941 125.629 18.6908C124.659 16.797 123.308 15.2726 121.61 14.1172ZM116.9 29.3722C115.696 30.3521 113.958 30.8388 111.706 30.8388H109.569V19.6041H111.647C114.016 19.6041 115.793 20.0598 116.958 20.9826C118.124 21.9047 118.706 23.3036 118.706 25.1777C118.706 27.0024 118.104 28.4012 116.9 29.3722ZM139.437 12.3217H131.417V53.7438H152.439V46.4614H139.437V12.3217ZM76.8567 12.3217L60.7764 53.7438H69.1762L72.3896 45.0632H87.7498L91.0132 53.7438H99.6937L83.8468 12.3217H76.8567ZM75.177 37.3822L80.1778 24.0413L85.0707 37.3822H75.177ZM36.3124 51.4076C22.853 45.9911 19.9197 49.8744 5.49697 49.0638C20.6651 48.475 22.1114 44.5347 36.3124 51.4076ZM11.8724 7.35397C23.1654 24.62 22.884 35.0245 40.782 48.835C21.5473 38.8463 18.6103 19.085 11.8724 7.35397ZM45.7997 48.6404C43.2233 32.2928 50.4721 27.7852 54.8327 16.5371C52.402 27.4822 44.934 32.2256 45.7997 48.6404Z" fill="#6A6A6A"/>
</svg>
